<?xml version="1.0" encoding="UTF-8"?>
<!DOCTYPE svg PUBLIC "-//W3C//DTD SVG 1.1//EN" "http://www.w3.org/Graphics/SVG/1.1/DTD/svg11.dtd">
<svg xmlns="http://www.w3.org/2000/svg" version="1.1" width="1440px" height="237px" style="shape-rendering:geometricPrecision; text-rendering:geometricPrecision; image-rendering:optimizeQuality; fill-rule:evenodd; clip-rule:evenodd" xmlns:xlink="http://www.w3.org/1999/xlink">
<g><path style="opacity:1" fill="#fefffe" d="M -0.5,-0.5 C 479.5,-0.5 959.5,-0.5 1439.5,-0.5C 1439.5,4.83333 1439.5,10.1667 1439.5,15.5C 959.5,15.5 479.5,15.5 -0.5,15.5C -0.5,10.1667 -0.5,4.83333 -0.5,-0.5 Z"/></g>
<g><path style="opacity:1" fill="#ff6f00" d="M -0.5,15.5 C 479.5,15.5 959.5,15.5 1439.5,15.5C 1439.5,52.5 1439.5,89.5 1439.5,126.5C 1312.49,113.666 1185.49,100.666 1058.5,87.5C 1014.85,92.4429 971.18,97.2763 927.5,102C 859.892,119.152 792.225,136.152 724.5,153C 708.946,155.578 693.446,158.411 678,161.5C 646.157,155.054 614.324,148.554 582.5,142C 553.613,133.26 524.613,124.926 495.5,117C 423.815,107.328 352.148,97.6617 280.5,88C 186.834,87.5 93.1673,87.3333 -0.5,87.5C -0.5,63.5 -0.5,39.5 -0.5,15.5 Z"/></g>
<g><path style="opacity:1" fill="#fffdfb" d="M -0.5,87.5 C 93.1673,87.3333 186.834,87.5 280.5,88C 352.148,97.6617 423.815,107.328 495.5,117C 524.613,124.926 553.613,133.26 582.5,142C 614.324,148.554 646.157,155.054 678,161.5C 693.446,158.411 708.946,155.578 724.5,153C 792.225,136.152 859.892,119.152 927.5,102C 971.18,97.2763 1014.85,92.4429 1058.5,87.5C 1185.49,100.666 1312.49,113.666 1439.5,126.5C 1439.5,130.833 1439.5,135.167 1439.5,139.5C 1312.54,124.755 1185.54,110.088 1058.5,95.5C 1004.1,102.914 949.771,110.747 895.5,119C 862.196,126.794 828.862,134.461 795.5,142C 760.248,151.813 724.914,161.313 689.5,170.5C 666.152,167.776 642.819,164.943 619.5,162C 579.085,150.194 538.752,138.194 498.5,126C 332.165,122.523 165.831,119.023 -0.5,115.5C -0.5,106.167 -0.5,96.8333 -0.5,87.5 Z"/></g>
<g><path style="opacity:1" fill="#dfdf01" d="M 1439.5,139.5 C 1439.5,171.833 1439.5,204.167 1439.5,236.5C 1189.83,236.5 940.167,236.5 690.5,236.5C 666.003,232.829 641.337,229.329 616.5,226C 596.185,224.866 575.852,224.199 555.5,224C 370.171,222.569 184.838,222.069 -0.5,222.5C -0.5,186.833 -0.5,151.167 -0.5,115.5C 165.831,119.023 332.165,122.523 498.5,126C 538.752,138.194 579.085,150.194 619.5,162C 642.819,164.943 666.152,167.776 689.5,170.5C 724.914,161.313 760.248,151.813 795.5,142C 828.862,134.461 862.196,126.794 895.5,119C 949.771,110.747 1004.1,102.914 1058.5,95.5C 1185.54,110.088 1312.54,124.755 1439.5,139.5 Z"/></g>
<g><path style="opacity:1" fill="#fefefb" d="M -0.5,222.5 C 184.838,222.069 370.171,222.569 555.5,224C 575.852,224.199 596.185,224.866 616.5,226C 641.337,229.329 666.003,232.829 690.5,236.5C 460.167,236.5 229.833,236.5 -0.5,236.5C -0.5,231.833 -0.5,227.167 -0.5,222.5 Z"/></g>
</svg>
